<svg width="1280" height="720" viewBox="0 0 1280 720" fill="none" xmlns="http://www.w3.org/2000/svg">
<rect width="1280" height="720" fill="#040924"/>
<g filter="url(#filter0_d_6_5)">
<rect x="426" y="130" width="428" height="440" rx="6" fill="white" shape-rendering="crispEdges"/>
<path d="M505.219 201.453H509.891C509.797 202.984 509.375 204.344 508.625 205.531C507.885 206.719 506.849 207.646 505.516 208.312C504.193 208.979 502.599 209.312 500.734 209.312C499.276 209.312 497.969 209.062 496.812 208.562C495.656 208.052 494.667 207.323 493.844 206.375C493.031 205.427 492.411 204.281 491.984 202.938C491.557 201.594 491.344 200.089 491.344 198.422V196.844C491.344 195.177 491.562 193.672 492 192.328C492.448 190.974 493.083 189.823 493.906 188.875C494.74 187.927 495.734 187.198 496.891 186.688C498.047 186.177 499.339 185.922 500.766 185.922C502.661 185.922 504.26 186.266 505.562 186.953C506.875 187.641 507.891 188.589 508.609 189.797C509.339 191.005 509.776 192.38 509.922 193.922H505.234C505.182 193.005 505 192.229 504.688 191.594C504.375 190.948 503.901 190.464 503.266 190.141C502.641 189.807 501.807 189.641 500.766 189.641C499.984 189.641 499.302 189.786 498.719 190.078C498.135 190.37 497.646 190.812 497.25 191.406C496.854 192 496.557 192.75 496.359 193.656C496.172 194.552 496.078 195.604 496.078 196.812V198.422C496.078 199.599 496.167 200.635 496.344 201.531C496.521 202.417 496.792 203.167 497.156 203.781C497.531 204.385 498.01 204.844 498.594 205.156C499.188 205.458 499.901 205.609 500.734 205.609C501.714 205.609 502.521 205.453 503.156 205.141C503.792 204.828 504.276 204.365 504.609 203.75C504.953 203.135 505.156 202.37 505.219 201.453ZM521.812 205.188V197.656C521.812 197.115 521.724 196.651 521.547 196.266C521.37 195.87 521.094 195.562 520.719 195.344C520.354 195.125 519.88 195.016 519.297 195.016C518.797 195.016 518.365 195.104 518 195.281C517.635 195.448 517.354 195.693 517.156 196.016C516.958 196.328 516.859 196.698 516.859 197.125H512.359C512.359 196.406 512.526 195.724 512.859 195.078C513.193 194.432 513.677 193.865 514.312 193.375C514.948 192.875 515.703 192.484 516.578 192.203C517.464 191.922 518.453 191.781 519.547 191.781C520.859 191.781 522.026 192 523.047 192.438C524.068 192.875 524.87 193.531 525.453 194.406C526.047 195.281 526.344 196.375 526.344 197.688V204.922C526.344 205.849 526.401 206.609 526.516 207.203C526.63 207.786 526.797 208.297 527.016 208.734V209H522.469C522.25 208.542 522.083 207.969 521.969 207.281C521.865 206.583 521.812 205.885 521.812 205.188ZM522.406 198.703L522.438 201.25H519.922C519.328 201.25 518.812 201.318 518.375 201.453C517.938 201.589 517.578 201.781 517.297 202.031C517.016 202.271 516.807 202.552 516.672 202.875C516.547 203.198 516.484 203.552 516.484 203.938C516.484 204.323 516.573 204.672 516.75 204.984C516.927 205.286 517.182 205.526 517.516 205.703C517.849 205.87 518.24 205.953 518.688 205.953C519.365 205.953 519.953 205.818 520.453 205.547C520.953 205.276 521.339 204.943 521.609 204.547C521.891 204.151 522.036 203.776 522.047 203.422L523.234 205.328C523.068 205.755 522.839 206.198 522.547 206.656C522.266 207.115 521.906 207.547 521.469 207.953C521.031 208.349 520.505 208.677 519.891 208.938C519.276 209.188 518.547 209.312 517.703 209.312C516.63 209.312 515.656 209.099 514.781 208.672C513.917 208.234 513.229 207.635 512.719 206.875C512.219 206.104 511.969 205.229 511.969 204.25C511.969 203.365 512.135 202.578 512.469 201.891C512.802 201.203 513.292 200.625 513.938 200.156C514.594 199.677 515.411 199.318 516.391 199.078C517.37 198.828 518.505 198.703 519.797 198.703H522.406ZM517.391 189.812L520.453 185H525.344L521.047 189.812H517.391ZM534.562 185V209H530.047V185H534.562ZM545.266 205.797C545.818 205.797 546.307 205.693 546.734 205.484C547.161 205.266 547.495 204.964 547.734 204.578C547.984 204.182 548.115 203.719 548.125 203.188H552.359C552.349 204.375 552.031 205.432 551.406 206.359C550.781 207.276 549.943 208 548.891 208.531C547.839 209.052 546.661 209.312 545.359 209.312C544.047 209.312 542.901 209.094 541.922 208.656C540.953 208.219 540.146 207.615 539.5 206.844C538.854 206.062 538.37 205.156 538.047 204.125C537.724 203.083 537.562 201.969 537.562 200.781V200.328C537.562 199.13 537.724 198.016 538.047 196.984C538.37 195.943 538.854 195.036 539.5 194.266C540.146 193.484 540.953 192.875 541.922 192.438C542.891 192 544.026 191.781 545.328 191.781C546.714 191.781 547.927 192.047 548.969 192.578C550.021 193.109 550.844 193.87 551.438 194.859C552.042 195.839 552.349 197 552.359 198.344H548.125C548.115 197.781 547.995 197.271 547.766 196.812C547.547 196.354 547.224 195.99 546.797 195.719C546.38 195.438 545.865 195.297 545.25 195.297C544.594 195.297 544.057 195.438 543.641 195.719C543.224 195.99 542.901 196.365 542.672 196.844C542.443 197.312 542.281 197.849 542.188 198.453C542.104 199.047 542.062 199.672 542.062 200.328V200.781C542.062 201.438 542.104 202.068 542.188 202.672C542.271 203.276 542.427 203.812 542.656 204.281C542.896 204.75 543.224 205.12 543.641 205.391C544.057 205.661 544.599 205.797 545.266 205.797ZM564.969 204.953V192.094H569.469V209H565.234L564.969 204.953ZM565.469 201.484L566.797 201.453C566.797 202.578 566.667 203.625 566.406 204.594C566.146 205.552 565.755 206.385 565.234 207.094C564.714 207.792 564.057 208.339 563.266 208.734C562.474 209.12 561.542 209.312 560.469 209.312C559.646 209.312 558.885 209.198 558.188 208.969C557.5 208.729 556.906 208.359 556.406 207.859C555.917 207.349 555.531 206.698 555.25 205.906C554.979 205.104 554.844 204.141 554.844 203.016V192.094H559.344V203.047C559.344 203.547 559.401 203.969 559.516 204.312C559.641 204.656 559.812 204.938 560.031 205.156C560.25 205.375 560.505 205.531 560.797 205.625C561.099 205.719 561.432 205.766 561.797 205.766C562.724 205.766 563.453 205.578 563.984 205.203C564.526 204.828 564.906 204.318 565.125 203.672C565.354 203.016 565.469 202.286 565.469 201.484ZM577.656 185V209H573.141V185H577.656ZM580.656 200.719V200.391C580.656 199.151 580.833 198.01 581.188 196.969C581.542 195.917 582.057 195.005 582.734 194.234C583.411 193.464 584.245 192.865 585.234 192.438C586.224 192 587.359 191.781 588.641 191.781C589.922 191.781 591.062 192 592.062 192.438C593.062 192.865 593.901 193.464 594.578 194.234C595.266 195.005 595.786 195.917 596.141 196.969C596.495 198.01 596.672 199.151 596.672 200.391V200.719C596.672 201.948 596.495 203.089 596.141 204.141C595.786 205.182 595.266 206.094 594.578 206.875C593.901 207.646 593.068 208.245 592.078 208.672C591.089 209.099 589.953 209.312 588.672 209.312C587.391 209.312 586.25 209.099 585.25 208.672C584.26 208.245 583.422 207.646 582.734 206.875C582.057 206.094 581.542 205.182 581.188 204.141C580.833 203.089 580.656 201.948 580.656 200.719ZM585.156 200.391V200.719C585.156 201.427 585.219 202.089 585.344 202.703C585.469 203.318 585.667 203.859 585.938 204.328C586.219 204.786 586.583 205.146 587.031 205.406C587.479 205.667 588.026 205.797 588.672 205.797C589.297 205.797 589.833 205.667 590.281 205.406C590.729 205.146 591.089 204.786 591.359 204.328C591.63 203.859 591.828 203.318 591.953 202.703C592.089 202.089 592.156 201.427 592.156 200.719V200.391C592.156 199.703 592.089 199.057 591.953 198.453C591.828 197.839 591.625 197.297 591.344 196.828C591.073 196.349 590.714 195.974 590.266 195.703C589.818 195.432 589.276 195.297 588.641 195.297C588.005 195.297 587.464 195.432 587.016 195.703C586.578 195.974 586.219 196.349 585.938 196.828C585.667 197.297 585.469 197.839 585.344 198.453C585.219 199.057 585.156 199.703 585.156 200.391ZM617.391 205.312V185H621.922V209H617.844L617.391 205.312ZM606.703 200.75V200.422C606.703 199.13 606.849 197.958 607.141 196.906C607.432 195.844 607.859 194.932 608.422 194.172C608.984 193.411 609.677 192.823 610.5 192.406C611.323 191.99 612.26 191.781 613.312 191.781C614.302 191.781 615.167 191.99 615.906 192.406C616.656 192.823 617.292 193.417 617.812 194.188C618.344 194.948 618.771 195.849 619.094 196.891C619.417 197.922 619.651 199.052 619.797 200.281V201C619.651 202.177 619.417 203.271 619.094 204.281C618.771 205.292 618.344 206.177 617.812 206.938C617.292 207.688 616.656 208.271 615.906 208.688C615.156 209.104 614.281 209.312 613.281 209.312C612.229 209.312 611.292 209.099 610.469 208.672C609.656 208.245 608.969 207.646 608.406 206.875C607.854 206.104 607.432 205.198 607.141 204.156C606.849 203.115 606.703 201.979 606.703 200.75ZM611.203 200.422V200.75C611.203 201.448 611.255 202.099 611.359 202.703C611.474 203.307 611.656 203.844 611.906 204.312C612.167 204.771 612.5 205.13 612.906 205.391C613.323 205.641 613.828 205.766 614.422 205.766C615.193 205.766 615.828 205.594 616.328 205.25C616.828 204.896 617.208 204.411 617.469 203.797C617.74 203.182 617.896 202.474 617.938 201.672V199.625C617.906 198.969 617.812 198.38 617.656 197.859C617.51 197.328 617.292 196.875 617 196.5C616.719 196.125 616.365 195.833 615.938 195.625C615.521 195.417 615.026 195.312 614.453 195.312C613.87 195.312 613.37 195.448 612.953 195.719C612.536 195.979 612.198 196.339 611.938 196.797C611.688 197.255 611.5 197.797 611.375 198.422C611.26 199.036 611.203 199.703 611.203 200.422ZM633.219 209.312C631.906 209.312 630.729 209.104 629.688 208.688C628.646 208.26 627.76 207.672 627.031 206.922C626.312 206.172 625.76 205.302 625.375 204.312C624.99 203.312 624.797 202.25 624.797 201.125V200.5C624.797 199.219 624.979 198.047 625.344 196.984C625.708 195.922 626.229 195 626.906 194.219C627.594 193.438 628.427 192.839 629.406 192.422C630.385 191.995 631.49 191.781 632.719 191.781C633.917 191.781 634.979 191.979 635.906 192.375C636.833 192.771 637.609 193.333 638.234 194.062C638.87 194.792 639.349 195.667 639.672 196.688C639.995 197.698 640.156 198.823 640.156 200.062V201.938H626.719V198.938H635.734V198.594C635.734 197.969 635.62 197.411 635.391 196.922C635.172 196.422 634.839 196.026 634.391 195.734C633.943 195.443 633.37 195.297 632.672 195.297C632.078 195.297 631.568 195.427 631.141 195.688C630.714 195.948 630.365 196.312 630.094 196.781C629.833 197.25 629.635 197.802 629.5 198.438C629.375 199.062 629.312 199.75 629.312 200.5V201.125C629.312 201.802 629.406 202.427 629.594 203C629.792 203.573 630.068 204.068 630.422 204.484C630.786 204.901 631.224 205.224 631.734 205.453C632.255 205.682 632.844 205.797 633.5 205.797C634.312 205.797 635.068 205.641 635.766 205.328C636.474 205.005 637.083 204.521 637.594 203.875L639.781 206.25C639.427 206.76 638.943 207.25 638.328 207.719C637.724 208.188 636.995 208.573 636.141 208.875C635.286 209.167 634.312 209.312 633.219 209.312ZM655.953 186.25V209H651.281V186.25H655.953ZM662.484 186.25H666.453L672.297 202.953L678.141 186.25H682.109L673.891 209H670.703L662.484 186.25ZM660.344 186.25H664.297L665.016 202.531V209H660.344V186.25ZM680.297 186.25H684.266V209H679.578V202.531L680.297 186.25ZM701.562 201.453H706.234C706.141 202.984 705.719 204.344 704.969 205.531C704.229 206.719 703.193 207.646 701.859 208.312C700.536 208.979 698.943 209.312 697.078 209.312C695.62 209.312 694.312 209.062 693.156 208.562C692 208.052 691.01 207.323 690.188 206.375C689.375 205.427 688.755 204.281 688.328 202.938C687.901 201.594 687.688 200.089 687.688 198.422V196.844C687.688 195.177 687.906 193.672 688.344 192.328C688.792 190.974 689.427 189.823 690.25 188.875C691.083 187.927 692.078 187.198 693.234 186.688C694.391 186.177 695.682 185.922 697.109 185.922C699.005 185.922 700.604 186.266 701.906 186.953C703.219 187.641 704.234 188.589 704.953 189.797C705.682 191.005 706.12 192.38 706.266 193.922H701.578C701.526 193.005 701.344 192.229 701.031 191.594C700.719 190.948 700.245 190.464 699.609 190.141C698.984 189.807 698.151 189.641 697.109 189.641C696.328 189.641 695.646 189.786 695.062 190.078C694.479 190.37 693.99 190.812 693.594 191.406C693.198 192 692.901 192.75 692.703 193.656C692.516 194.552 692.422 195.604 692.422 196.812V198.422C692.422 199.599 692.51 200.635 692.688 201.531C692.865 202.417 693.135 203.167 693.5 203.781C693.875 204.385 694.354 204.844 694.938 205.156C695.531 205.458 696.245 205.609 697.078 205.609C698.057 205.609 698.865 205.453 699.5 205.141C700.135 204.828 700.62 204.365 700.953 203.75C701.297 203.135 701.5 202.37 701.562 201.453Z" fill="#0C3440"/>
<path d="M494.826 260.097H492.167V259.023H494.826C495.341 259.023 495.758 258.941 496.077 258.777C496.396 258.613 496.629 258.385 496.774 258.094C496.925 257.802 497 257.469 497 257.096C497 256.754 496.925 256.433 496.774 256.132C496.629 255.831 496.396 255.59 496.077 255.407C495.758 255.22 495.341 255.127 494.826 255.127H492.475V264H491.155V254.047H494.826C495.578 254.047 496.214 254.177 496.733 254.437C497.253 254.696 497.647 255.056 497.916 255.517C498.185 255.972 498.319 256.494 498.319 257.082C498.319 257.72 498.185 258.265 497.916 258.716C497.647 259.167 497.253 259.511 496.733 259.748C496.214 259.98 495.578 260.097 494.826 260.097ZM502.77 264.137C502.255 264.137 501.787 264.05 501.368 263.877C500.953 263.699 500.596 263.451 500.295 263.132C499.999 262.813 499.771 262.435 499.611 261.997C499.452 261.56 499.372 261.081 499.372 260.562V260.274C499.372 259.673 499.461 259.137 499.639 258.668C499.816 258.194 500.058 257.793 500.363 257.465C500.669 257.137 501.015 256.888 501.402 256.72C501.79 256.551 502.191 256.467 502.605 256.467C503.134 256.467 503.59 256.558 503.973 256.74C504.36 256.923 504.677 257.178 504.923 257.506C505.169 257.829 505.351 258.212 505.47 258.654C505.588 259.092 505.647 259.57 505.647 260.09V260.657H500.124V259.625H504.383V259.529C504.365 259.201 504.296 258.882 504.178 258.572C504.064 258.262 503.882 258.007 503.631 257.807C503.38 257.606 503.038 257.506 502.605 257.506C502.318 257.506 502.054 257.567 501.812 257.69C501.571 257.809 501.364 257.987 501.19 258.224C501.017 258.461 500.883 258.75 500.787 259.092C500.691 259.434 500.644 259.828 500.644 260.274V260.562C500.644 260.912 500.691 261.243 500.787 261.553C500.887 261.858 501.031 262.127 501.218 262.359C501.409 262.592 501.639 262.774 501.908 262.906C502.182 263.038 502.492 263.104 502.838 263.104C503.285 263.104 503.663 263.013 503.973 262.831C504.283 262.649 504.554 262.405 504.786 262.1L505.552 262.708C505.392 262.95 505.189 263.18 504.943 263.398C504.697 263.617 504.394 263.795 504.034 263.932C503.679 264.068 503.257 264.137 502.77 264.137ZM511.431 262.038C511.431 261.856 511.39 261.687 511.308 261.532C511.23 261.373 511.068 261.229 510.822 261.102C510.581 260.969 510.216 260.855 509.729 260.76C509.318 260.673 508.947 260.571 508.614 260.452C508.286 260.334 508.006 260.19 507.773 260.021C507.546 259.853 507.37 259.655 507.247 259.427C507.124 259.199 507.062 258.932 507.062 258.627C507.062 258.335 507.126 258.06 507.254 257.8C507.386 257.54 507.571 257.31 507.808 257.109C508.049 256.909 508.339 256.752 508.676 256.638C509.013 256.524 509.389 256.467 509.804 256.467C510.396 256.467 510.902 256.572 511.321 256.781C511.741 256.991 512.062 257.271 512.285 257.622C512.508 257.968 512.62 258.354 512.62 258.777H511.355C511.355 258.572 511.294 258.374 511.171 258.183C511.052 257.987 510.877 257.825 510.645 257.697C510.417 257.57 510.136 257.506 509.804 257.506C509.453 257.506 509.168 257.561 508.949 257.67C508.735 257.775 508.578 257.909 508.478 258.073C508.382 258.237 508.334 258.41 508.334 258.593C508.334 258.729 508.357 258.853 508.402 258.962C508.452 259.067 508.539 259.165 508.662 259.256C508.785 259.342 508.958 259.424 509.182 259.502C509.405 259.579 509.69 259.657 510.036 259.734C510.642 259.871 511.141 260.035 511.533 260.227C511.925 260.418 512.217 260.653 512.408 260.931C512.6 261.209 512.695 261.546 512.695 261.942C512.695 262.266 512.627 262.562 512.49 262.831C512.358 263.1 512.164 263.332 511.909 263.528C511.659 263.72 511.358 263.87 511.007 263.979C510.66 264.084 510.271 264.137 509.838 264.137C509.186 264.137 508.635 264.021 508.184 263.788C507.732 263.556 507.391 263.255 507.158 262.886C506.926 262.517 506.81 262.127 506.81 261.717H508.081C508.099 262.063 508.2 262.339 508.382 262.544C508.564 262.744 508.787 262.888 509.052 262.975C509.316 263.057 509.578 263.098 509.838 263.098C510.184 263.098 510.474 263.052 510.706 262.961C510.943 262.87 511.123 262.744 511.246 262.585C511.369 262.425 511.431 262.243 511.431 262.038ZM514.021 260.384V260.227C514.021 259.693 514.099 259.199 514.254 258.743C514.409 258.283 514.632 257.884 514.924 257.547C515.215 257.205 515.569 256.941 515.983 256.754C516.398 256.562 516.863 256.467 517.378 256.467C517.897 256.467 518.365 256.562 518.779 256.754C519.199 256.941 519.554 257.205 519.846 257.547C520.142 257.884 520.368 258.283 520.522 258.743C520.677 259.199 520.755 259.693 520.755 260.227V260.384C520.755 260.917 520.677 261.411 520.522 261.867C520.368 262.323 520.142 262.722 519.846 263.063C519.554 263.401 519.201 263.665 518.786 263.856C518.376 264.043 517.911 264.137 517.392 264.137C516.872 264.137 516.405 264.043 515.99 263.856C515.576 263.665 515.22 263.401 514.924 263.063C514.632 262.722 514.409 262.323 514.254 261.867C514.099 261.411 514.021 260.917 514.021 260.384ZM515.286 260.227V260.384C515.286 260.753 515.329 261.102 515.416 261.43C515.503 261.753 515.632 262.04 515.806 262.291C515.983 262.542 516.204 262.74 516.469 262.886C516.733 263.027 517.041 263.098 517.392 263.098C517.738 263.098 518.041 263.027 518.301 262.886C518.565 262.74 518.784 262.542 518.957 262.291C519.13 262.04 519.26 261.753 519.347 261.43C519.438 261.102 519.483 260.753 519.483 260.384V260.227C519.483 259.862 519.438 259.518 519.347 259.194C519.26 258.866 519.128 258.577 518.95 258.326C518.777 258.071 518.558 257.87 518.294 257.725C518.034 257.579 517.729 257.506 517.378 257.506C517.032 257.506 516.726 257.579 516.462 257.725C516.202 257.87 515.983 258.071 515.806 258.326C515.632 258.577 515.503 258.866 515.416 259.194C515.329 259.518 515.286 259.862 515.286 260.227ZM525.766 260.021V259.953C525.766 258.96 525.877 258.062 526.101 257.26C526.324 256.453 526.609 255.747 526.955 255.141C527.301 254.535 527.666 254.033 528.049 253.637C528.432 253.236 528.785 252.946 529.108 252.769L529.375 253.603C529.106 253.808 528.833 254.09 528.555 254.45C528.281 254.81 528.028 255.252 527.796 255.776C527.568 256.3 527.383 256.909 527.242 257.602C527.101 258.294 527.03 259.074 527.03 259.939V260.035C527.03 260.901 527.101 261.683 527.242 262.38C527.383 263.073 527.568 263.683 527.796 264.212C528.028 264.741 528.281 265.189 528.555 265.559C528.833 265.932 529.106 266.229 529.375 266.447L529.108 267.213C528.785 267.035 528.432 266.746 528.049 266.345C527.666 265.948 527.301 265.447 526.955 264.841C526.609 264.239 526.324 263.535 526.101 262.729C525.877 261.922 525.766 261.02 525.766 260.021ZM531.884 253.5V264H530.612V253.5H531.884ZM536.402 256.604L533.176 260.056L531.371 261.929L531.269 260.582L532.561 259.037L534.857 256.604H536.402ZM535.247 264L532.608 260.473L533.265 259.345L536.737 264H535.247ZM542.363 256.604H543.512V263.843C543.512 264.494 543.38 265.05 543.115 265.511C542.851 265.971 542.482 266.32 542.008 266.557C541.538 266.798 540.996 266.919 540.381 266.919C540.126 266.919 539.825 266.878 539.479 266.796C539.137 266.718 538.799 266.584 538.467 266.393C538.139 266.206 537.863 265.953 537.64 265.634L538.303 264.882C538.613 265.256 538.936 265.515 539.273 265.661C539.615 265.807 539.952 265.88 540.285 265.88C540.686 265.88 541.033 265.805 541.324 265.654C541.616 265.504 541.841 265.281 542.001 264.984C542.165 264.693 542.247 264.333 542.247 263.904V258.23L542.363 256.604ZM537.271 260.384V260.24C537.271 259.675 537.337 259.162 537.469 258.702C537.605 258.237 537.799 257.839 538.05 257.506C538.305 257.173 538.613 256.918 538.973 256.74C539.333 256.558 539.738 256.467 540.189 256.467C540.654 256.467 541.06 256.549 541.406 256.713C541.757 256.872 542.053 257.107 542.295 257.417C542.541 257.722 542.735 258.091 542.876 258.524C543.017 258.957 543.115 259.447 543.17 259.994V260.623C543.12 261.165 543.022 261.653 542.876 262.086C542.735 262.519 542.541 262.888 542.295 263.193C542.053 263.499 541.757 263.733 541.406 263.897C541.055 264.057 540.645 264.137 540.176 264.137C539.734 264.137 539.333 264.043 538.973 263.856C538.617 263.67 538.312 263.408 538.057 263.07C537.801 262.733 537.605 262.337 537.469 261.881C537.337 261.421 537.271 260.922 537.271 260.384ZM538.535 260.24V260.384C538.535 260.753 538.572 261.099 538.645 261.423C538.722 261.746 538.838 262.031 538.993 262.277C539.153 262.523 539.355 262.717 539.602 262.858C539.848 262.995 540.142 263.063 540.483 263.063C540.903 263.063 541.249 262.975 541.522 262.797C541.796 262.619 542.012 262.384 542.172 262.093C542.336 261.801 542.464 261.484 542.555 261.143V259.495C542.505 259.244 542.427 259.003 542.322 258.771C542.222 258.534 542.09 258.324 541.926 258.142C541.766 257.955 541.568 257.807 541.331 257.697C541.094 257.588 540.816 257.533 540.497 257.533C540.151 257.533 539.852 257.606 539.602 257.752C539.355 257.893 539.153 258.089 538.993 258.34C538.838 258.586 538.722 258.873 538.645 259.201C538.572 259.525 538.535 259.871 538.535 260.24ZM548.345 259.953V260.021C548.345 261.02 548.233 261.922 548.01 262.729C547.786 263.535 547.502 264.239 547.155 264.841C546.809 265.447 546.444 265.948 546.062 266.345C545.679 266.746 545.326 267.035 545.002 267.213L544.735 266.447C545.004 266.242 545.275 265.955 545.549 265.586C545.822 265.221 546.075 264.77 546.308 264.232C546.54 263.699 546.727 263.084 546.868 262.387C547.009 261.685 547.08 260.901 547.08 260.035V259.939C547.08 259.074 547.005 258.292 546.854 257.595C546.704 256.893 546.508 256.275 546.267 255.742C546.03 255.209 545.774 254.76 545.501 254.396C545.232 254.026 544.977 253.742 544.735 253.541L545.002 252.769C545.326 252.946 545.679 253.236 546.062 253.637C546.444 254.033 546.809 254.535 547.155 255.141C547.502 255.747 547.786 256.453 548.01 257.26C548.233 258.062 548.345 258.96 548.345 259.953Z" fill="#00453A"/>
<rect x="490.5" y="276.5" width="299" height="51" rx="3.5" fill="#DCE2E9"/>
<rect x="490.5" y="276.5" width="299" height="51" rx="3.5" stroke="#02799D"/>
<path d="M512.492 295.609H512.617V296.836H512.492C511.727 296.836 511.086 296.961 510.57 297.211C510.055 297.456 509.646 297.786 509.344 298.203C509.042 298.615 508.823 299.078 508.688 299.594C508.557 300.109 508.492 300.633 508.492 301.164V302.836C508.492 303.341 508.552 303.789 508.672 304.18C508.792 304.565 508.956 304.891 509.164 305.156C509.372 305.422 509.607 305.622 509.867 305.758C510.133 305.893 510.409 305.961 510.695 305.961C511.029 305.961 511.326 305.898 511.586 305.773C511.846 305.643 512.065 305.464 512.242 305.234C512.424 305 512.562 304.724 512.656 304.406C512.75 304.089 512.797 303.74 512.797 303.359C512.797 303.021 512.755 302.695 512.672 302.383C512.589 302.065 512.461 301.784 512.289 301.539C512.117 301.289 511.901 301.094 511.641 300.953C511.385 300.807 511.081 300.734 510.727 300.734C510.326 300.734 509.951 300.833 509.602 301.031C509.258 301.224 508.974 301.479 508.75 301.797C508.531 302.109 508.406 302.451 508.375 302.82L507.609 302.812C507.682 302.229 507.818 301.732 508.016 301.32C508.219 300.904 508.469 300.565 508.766 300.305C509.068 300.039 509.404 299.846 509.773 299.727C510.148 299.602 510.544 299.539 510.961 299.539C511.529 299.539 512.018 299.646 512.43 299.859C512.841 300.073 513.18 300.359 513.445 300.719C513.711 301.073 513.906 301.474 514.031 301.922C514.161 302.365 514.227 302.82 514.227 303.289C514.227 303.826 514.151 304.328 514 304.797C513.849 305.266 513.622 305.677 513.32 306.031C513.023 306.385 512.656 306.661 512.219 306.859C511.781 307.057 511.273 307.156 510.695 307.156C510.081 307.156 509.544 307.031 509.086 306.781C508.628 306.526 508.247 306.188 507.945 305.766C507.643 305.344 507.417 304.875 507.266 304.359C507.115 303.844 507.039 303.32 507.039 302.789V302.109C507.039 301.307 507.12 300.521 507.281 299.75C507.443 298.979 507.721 298.281 508.117 297.656C508.518 297.031 509.073 296.534 509.781 296.164C510.49 295.794 511.393 295.609 512.492 295.609ZM523.086 300.406V302.141C523.086 303.073 523.003 303.859 522.836 304.5C522.669 305.141 522.43 305.656 522.117 306.047C521.805 306.438 521.427 306.721 520.984 306.898C520.547 307.07 520.052 307.156 519.5 307.156C519.062 307.156 518.659 307.102 518.289 306.992C517.919 306.883 517.586 306.708 517.289 306.469C516.997 306.224 516.747 305.906 516.539 305.516C516.331 305.125 516.172 304.651 516.062 304.094C515.953 303.536 515.898 302.885 515.898 302.141V300.406C515.898 299.474 515.982 298.693 516.148 298.062C516.32 297.432 516.562 296.927 516.875 296.547C517.188 296.161 517.562 295.885 518 295.719C518.443 295.552 518.938 295.469 519.484 295.469C519.927 295.469 520.333 295.523 520.703 295.633C521.078 295.737 521.411 295.906 521.703 296.141C521.995 296.37 522.242 296.677 522.445 297.062C522.654 297.443 522.812 297.909 522.922 298.461C523.031 299.013 523.086 299.661 523.086 300.406ZM521.633 302.375V300.164C521.633 299.654 521.602 299.206 521.539 298.82C521.482 298.43 521.396 298.096 521.281 297.82C521.167 297.544 521.021 297.32 520.844 297.148C520.672 296.977 520.471 296.852 520.242 296.773C520.018 296.69 519.766 296.648 519.484 296.648C519.141 296.648 518.836 296.714 518.57 296.844C518.305 296.969 518.081 297.169 517.898 297.445C517.721 297.721 517.586 298.083 517.492 298.531C517.398 298.979 517.352 299.523 517.352 300.164V302.375C517.352 302.885 517.38 303.336 517.438 303.727C517.5 304.117 517.591 304.456 517.711 304.742C517.831 305.023 517.977 305.255 518.148 305.438C518.32 305.62 518.518 305.755 518.742 305.844C518.971 305.927 519.224 305.969 519.5 305.969C519.854 305.969 520.164 305.901 520.43 305.766C520.695 305.63 520.917 305.419 521.094 305.133C521.276 304.841 521.411 304.469 521.5 304.016C521.589 303.557 521.633 303.01 521.633 302.375Z" fill="#212529"/>
<path d="M494.84 348.929L491.545 358H490.198L493.992 348.047H494.86L494.84 348.929ZM497.602 358L494.3 348.929L494.279 348.047H495.147L498.955 358H497.602ZM497.431 354.315V355.396H491.839V354.315H497.431ZM501.471 347.5V358H500.199V347.5H501.471ZM506.598 350.604V351.574H502.599V350.604H506.598ZM503.952 348.806H505.217V356.168C505.217 356.419 505.256 356.608 505.333 356.735C505.41 356.863 505.511 356.947 505.634 356.988C505.757 357.029 505.889 357.05 506.03 357.05C506.135 357.05 506.244 357.041 506.358 357.022C506.477 357 506.566 356.981 506.625 356.968L506.632 358C506.532 358.032 506.399 358.062 506.235 358.089C506.076 358.121 505.882 358.137 505.654 358.137C505.344 358.137 505.06 358.075 504.8 357.952C504.54 357.829 504.333 357.624 504.178 357.337C504.027 357.045 503.952 356.653 503.952 356.161V348.806ZM512.606 356.291V350.604H513.878V358H512.668L512.606 356.291ZM512.846 354.732L513.372 354.719C513.372 355.211 513.32 355.667 513.215 356.086C513.115 356.501 512.951 356.861 512.723 357.166C512.495 357.471 512.196 357.711 511.827 357.884C511.458 358.052 511.009 358.137 510.48 358.137C510.12 358.137 509.79 358.084 509.489 357.979C509.193 357.875 508.938 357.713 508.724 357.494C508.509 357.275 508.343 356.991 508.225 356.64C508.111 356.289 508.054 355.867 508.054 355.375V350.604H509.318V355.389C509.318 355.721 509.355 355.997 509.428 356.216C509.505 356.43 509.608 356.601 509.735 356.729C509.868 356.852 510.013 356.938 510.173 356.988C510.337 357.038 510.506 357.063 510.679 357.063C511.216 357.063 511.643 356.961 511.957 356.756C512.271 356.546 512.497 356.266 512.634 355.915C512.775 355.56 512.846 355.165 512.846 354.732ZM517.07 351.766V358H515.806V350.604H517.036L517.07 351.766ZM519.381 350.562L519.374 351.738C519.269 351.715 519.169 351.702 519.073 351.697C518.982 351.688 518.877 351.684 518.759 351.684C518.467 351.684 518.21 351.729 517.986 351.82C517.763 351.911 517.574 352.039 517.419 352.203C517.264 352.367 517.141 352.563 517.05 352.791C516.963 353.014 516.906 353.26 516.879 353.529L516.523 353.734C516.523 353.288 516.567 352.868 516.653 352.477C516.744 352.085 516.883 351.738 517.07 351.438C517.257 351.132 517.494 350.895 517.781 350.727C518.073 350.553 518.419 350.467 518.82 350.467C518.911 350.467 519.016 350.478 519.135 350.501C519.253 350.519 519.335 350.54 519.381 350.562ZM524.638 356.735V352.928C524.638 352.636 524.578 352.383 524.46 352.169C524.346 351.95 524.173 351.782 523.94 351.663C523.708 351.545 523.421 351.485 523.079 351.485C522.76 351.485 522.48 351.54 522.238 351.649C522.001 351.759 521.814 351.902 521.678 352.08C521.546 352.258 521.479 352.449 521.479 352.654H520.215C520.215 352.39 520.283 352.128 520.42 351.868C520.557 351.608 520.753 351.374 521.008 351.164C521.268 350.95 521.577 350.781 521.938 350.658C522.302 350.531 522.708 350.467 523.154 350.467C523.692 350.467 524.166 350.558 524.576 350.74C524.991 350.923 525.314 351.198 525.547 351.567C525.784 351.932 525.902 352.39 525.902 352.941V356.387C525.902 356.633 525.923 356.895 525.964 357.173C526.009 357.451 526.076 357.69 526.162 357.891V358H524.843C524.779 357.854 524.729 357.66 524.692 357.419C524.656 357.173 524.638 356.945 524.638 356.735ZM524.856 353.516L524.87 354.404H523.592C523.232 354.404 522.91 354.434 522.628 354.493C522.345 354.548 522.108 354.632 521.917 354.746C521.726 354.86 521.58 355.004 521.479 355.177C521.379 355.345 521.329 355.544 521.329 355.771C521.329 356.004 521.382 356.216 521.486 356.407C521.591 356.599 521.748 356.751 521.958 356.865C522.172 356.975 522.434 357.029 522.744 357.029C523.132 357.029 523.473 356.947 523.77 356.783C524.066 356.619 524.3 356.419 524.474 356.182C524.651 355.945 524.747 355.715 524.761 355.491L525.301 356.1C525.269 356.291 525.182 356.503 525.041 356.735C524.9 356.968 524.711 357.191 524.474 357.405C524.241 357.615 523.963 357.79 523.64 357.932C523.321 358.068 522.961 358.137 522.56 358.137C522.058 358.137 521.618 358.039 521.24 357.843C520.867 357.647 520.575 357.385 520.365 357.057C520.16 356.724 520.058 356.353 520.058 355.942C520.058 355.546 520.135 355.197 520.29 354.896C520.445 354.591 520.668 354.338 520.96 354.138C521.252 353.933 521.603 353.778 522.013 353.673C522.423 353.568 522.881 353.516 523.387 353.516H524.856ZM531.316 354.021V353.953C531.316 352.96 531.428 352.062 531.651 351.26C531.875 350.453 532.16 349.747 532.506 349.141C532.852 348.535 533.217 348.033 533.6 347.637C533.982 347.236 534.336 346.946 534.659 346.769L534.926 347.603C534.657 347.808 534.383 348.09 534.105 348.45C533.832 348.81 533.579 349.252 533.347 349.776C533.119 350.3 532.934 350.909 532.793 351.602C532.652 352.294 532.581 353.074 532.581 353.939V354.035C532.581 354.901 532.652 355.683 532.793 356.38C532.934 357.073 533.119 357.683 533.347 358.212C533.579 358.741 533.832 359.189 534.105 359.559C534.383 359.932 534.657 360.229 534.926 360.447L534.659 361.213C534.336 361.035 533.982 360.746 533.6 360.345C533.217 359.948 532.852 359.447 532.506 358.841C532.16 358.239 531.875 357.535 531.651 356.729C531.428 355.922 531.316 355.02 531.316 354.021ZM537.421 352.073V358H536.149V350.604H537.353L537.421 352.073ZM537.161 354.021L536.573 354.001C536.578 353.495 536.644 353.028 536.771 352.6C536.899 352.167 537.088 351.791 537.339 351.472C537.59 351.153 537.902 350.907 538.275 350.733C538.649 350.556 539.082 350.467 539.574 350.467C539.921 350.467 540.24 350.517 540.531 350.617C540.823 350.713 541.076 350.866 541.29 351.075C541.504 351.285 541.671 351.554 541.789 351.882C541.908 352.21 541.967 352.606 541.967 353.071V358H540.702V353.133C540.702 352.745 540.636 352.436 540.504 352.203C540.376 351.971 540.194 351.802 539.957 351.697C539.72 351.588 539.442 351.533 539.123 351.533C538.749 351.533 538.437 351.599 538.187 351.731C537.936 351.864 537.735 352.046 537.585 352.278C537.435 352.511 537.325 352.777 537.257 353.078C537.193 353.374 537.161 353.689 537.161 354.021ZM541.953 353.324L541.105 353.584C541.11 353.178 541.176 352.789 541.304 352.415C541.436 352.041 541.625 351.709 541.871 351.417C542.122 351.125 542.429 350.895 542.794 350.727C543.159 350.553 543.576 350.467 544.045 350.467C544.441 350.467 544.792 350.519 545.098 350.624C545.408 350.729 545.667 350.891 545.877 351.109C546.091 351.324 546.253 351.599 546.362 351.937C546.472 352.274 546.526 352.675 546.526 353.14V358H545.255V353.126C545.255 352.711 545.189 352.39 545.057 352.162C544.929 351.93 544.747 351.768 544.51 351.677C544.277 351.581 543.999 351.533 543.676 351.533C543.398 351.533 543.152 351.581 542.938 351.677C542.723 351.772 542.543 351.905 542.397 352.073C542.252 352.237 542.14 352.426 542.062 352.641C541.99 352.855 541.953 353.083 541.953 353.324ZM551.353 353.953V354.021C551.353 355.02 551.241 355.922 551.018 356.729C550.794 357.535 550.509 358.239 550.163 358.841C549.817 359.447 549.452 359.948 549.069 360.345C548.687 360.746 548.333 361.035 548.01 361.213L547.743 360.447C548.012 360.242 548.283 359.955 548.557 359.586C548.83 359.221 549.083 358.77 549.315 358.232C549.548 357.699 549.735 357.084 549.876 356.387C550.017 355.685 550.088 354.901 550.088 354.035V353.939C550.088 353.074 550.013 352.292 549.862 351.595C549.712 350.893 549.516 350.275 549.274 349.742C549.037 349.209 548.782 348.76 548.509 348.396C548.24 348.026 547.985 347.742 547.743 347.541L548.01 346.769C548.333 346.946 548.687 347.236 549.069 347.637C549.452 348.033 549.817 348.535 550.163 349.141C550.509 349.747 550.794 350.453 551.018 351.26C551.241 352.062 551.353 352.96 551.353 353.953Z" fill="#00453A"/>
<rect x="490" y="370" width="300" height="52" rx="4" fill="#DCE2E9"/>
<rect x="490.5" y="370.5" width="299" height="51" rx="3.5" stroke="#495057" stroke-opacity="0.3"/>
<path d="M511.695 389.562V401H510.25V391.367L507.336 392.43V391.125L511.469 389.562H511.695ZM521.492 389.609H521.617V390.836H521.492C520.727 390.836 520.086 390.961 519.57 391.211C519.055 391.456 518.646 391.786 518.344 392.203C518.042 392.615 517.823 393.078 517.688 393.594C517.557 394.109 517.492 394.633 517.492 395.164V396.836C517.492 397.341 517.552 397.789 517.672 398.18C517.792 398.565 517.956 398.891 518.164 399.156C518.372 399.422 518.607 399.622 518.867 399.758C519.133 399.893 519.409 399.961 519.695 399.961C520.029 399.961 520.326 399.898 520.586 399.773C520.846 399.643 521.065 399.464 521.242 399.234C521.424 399 521.562 398.724 521.656 398.406C521.75 398.089 521.797 397.74 521.797 397.359C521.797 397.021 521.755 396.695 521.672 396.383C521.589 396.065 521.461 395.784 521.289 395.539C521.117 395.289 520.901 395.094 520.641 394.953C520.385 394.807 520.081 394.734 519.727 394.734C519.326 394.734 518.951 394.833 518.602 395.031C518.258 395.224 517.974 395.479 517.75 395.797C517.531 396.109 517.406 396.451 517.375 396.82L516.609 396.812C516.682 396.229 516.818 395.732 517.016 395.32C517.219 394.904 517.469 394.565 517.766 394.305C518.068 394.039 518.404 393.846 518.773 393.727C519.148 393.602 519.544 393.539 519.961 393.539C520.529 393.539 521.018 393.646 521.43 393.859C521.841 394.073 522.18 394.359 522.445 394.719C522.711 395.073 522.906 395.474 523.031 395.922C523.161 396.365 523.227 396.82 523.227 397.289C523.227 397.826 523.151 398.328 523 398.797C522.849 399.266 522.622 399.677 522.32 400.031C522.023 400.385 521.656 400.661 521.219 400.859C520.781 401.057 520.273 401.156 519.695 401.156C519.081 401.156 518.544 401.031 518.086 400.781C517.628 400.526 517.247 400.188 516.945 399.766C516.643 399.344 516.417 398.875 516.266 398.359C516.115 397.844 516.039 397.32 516.039 396.789V396.109C516.039 395.307 516.12 394.521 516.281 393.75C516.443 392.979 516.721 392.281 517.117 391.656C517.518 391.031 518.073 390.534 518.781 390.164C519.49 389.794 520.393 389.609 521.492 389.609ZM526.773 395.586L525.617 395.289L526.188 389.625H532.023V390.961H527.414L527.07 394.055C527.279 393.935 527.542 393.823 527.859 393.719C528.182 393.615 528.552 393.562 528.969 393.562C529.495 393.562 529.966 393.654 530.383 393.836C530.799 394.013 531.154 394.268 531.445 394.602C531.742 394.935 531.969 395.336 532.125 395.805C532.281 396.273 532.359 396.797 532.359 397.375C532.359 397.922 532.284 398.424 532.133 398.883C531.987 399.341 531.766 399.742 531.469 400.086C531.172 400.424 530.797 400.688 530.344 400.875C529.896 401.062 529.367 401.156 528.758 401.156C528.299 401.156 527.865 401.094 527.453 400.969C527.047 400.839 526.682 400.643 526.359 400.383C526.042 400.117 525.781 399.789 525.578 399.398C525.38 399.003 525.255 398.539 525.203 398.008H526.578C526.641 398.435 526.766 398.794 526.953 399.086C527.141 399.378 527.385 399.599 527.688 399.75C527.995 399.896 528.352 399.969 528.758 399.969C529.102 399.969 529.406 399.909 529.672 399.789C529.938 399.669 530.161 399.497 530.344 399.273C530.526 399.049 530.664 398.779 530.758 398.461C530.857 398.143 530.906 397.786 530.906 397.391C530.906 397.031 530.857 396.698 530.758 396.391C530.659 396.083 530.51 395.815 530.312 395.586C530.12 395.357 529.883 395.18 529.602 395.055C529.32 394.924 528.997 394.859 528.633 394.859C528.148 394.859 527.781 394.924 527.531 395.055C527.286 395.185 527.034 395.362 526.773 395.586Z" fill="#495057" fill-opacity="0.5"/>
<rect x="490" y="454" width="300" height="52" rx="4" fill="#02799D"/>
<path d="M589.414 481.227H591.75C591.703 481.992 591.492 482.672 591.117 483.266C590.747 483.859 590.229 484.323 589.562 484.656C588.901 484.99 588.104 485.156 587.172 485.156C586.443 485.156 585.789 485.031 585.211 484.781C584.633 484.526 584.138 484.161 583.727 483.688C583.32 483.214 583.01 482.641 582.797 481.969C582.583 481.297 582.477 480.544 582.477 479.711V478.922C582.477 478.089 582.586 477.336 582.805 476.664C583.029 475.987 583.346 475.411 583.758 474.938C584.174 474.464 584.672 474.099 585.25 473.844C585.828 473.589 586.474 473.461 587.188 473.461C588.135 473.461 588.935 473.633 589.586 473.977C590.242 474.32 590.75 474.794 591.109 475.398C591.474 476.003 591.693 476.69 591.766 477.461H589.422C589.396 477.003 589.305 476.615 589.148 476.297C588.992 475.974 588.755 475.732 588.438 475.57C588.125 475.404 587.708 475.32 587.188 475.32C586.797 475.32 586.456 475.393 586.164 475.539C585.872 475.685 585.628 475.906 585.43 476.203C585.232 476.5 585.083 476.875 584.984 477.328C584.891 477.776 584.844 478.302 584.844 478.906V479.711C584.844 480.299 584.888 480.818 584.977 481.266C585.065 481.708 585.201 482.083 585.383 482.391C585.57 482.693 585.81 482.922 586.102 483.078C586.398 483.229 586.755 483.305 587.172 483.305C587.661 483.305 588.065 483.227 588.383 483.07C588.701 482.914 588.943 482.682 589.109 482.375C589.281 482.068 589.383 481.685 589.414 481.227ZM597.711 483.094V479.328C597.711 479.057 597.667 478.826 597.578 478.633C597.49 478.435 597.352 478.281 597.164 478.172C596.982 478.062 596.745 478.008 596.453 478.008C596.203 478.008 595.987 478.052 595.805 478.141C595.622 478.224 595.482 478.346 595.383 478.508C595.284 478.664 595.234 478.849 595.234 479.062H592.984C592.984 478.703 593.068 478.362 593.234 478.039C593.401 477.716 593.643 477.432 593.961 477.188C594.279 476.938 594.656 476.742 595.094 476.602C595.536 476.461 596.031 476.391 596.578 476.391C597.234 476.391 597.818 476.5 598.328 476.719C598.839 476.938 599.24 477.266 599.531 477.703C599.828 478.141 599.977 478.688 599.977 479.344V482.961C599.977 483.424 600.005 483.805 600.062 484.102C600.12 484.393 600.203 484.648 600.312 484.867V485H598.039C597.93 484.771 597.846 484.484 597.789 484.141C597.737 483.792 597.711 483.443 597.711 483.094ZM598.008 479.852L598.023 481.125H596.766C596.469 481.125 596.211 481.159 595.992 481.227C595.773 481.294 595.594 481.391 595.453 481.516C595.312 481.635 595.208 481.776 595.141 481.938C595.078 482.099 595.047 482.276 595.047 482.469C595.047 482.661 595.091 482.836 595.18 482.992C595.268 483.143 595.396 483.263 595.562 483.352C595.729 483.435 595.924 483.477 596.148 483.477C596.487 483.477 596.781 483.409 597.031 483.273C597.281 483.138 597.474 482.971 597.609 482.773C597.75 482.576 597.823 482.388 597.828 482.211L598.422 483.164C598.339 483.378 598.224 483.599 598.078 483.828C597.938 484.057 597.758 484.273 597.539 484.477C597.32 484.674 597.057 484.839 596.75 484.969C596.443 485.094 596.078 485.156 595.656 485.156C595.12 485.156 594.633 485.049 594.195 484.836C593.763 484.617 593.419 484.318 593.164 483.938C592.914 483.552 592.789 483.115 592.789 482.625C592.789 482.182 592.872 481.789 593.039 481.445C593.206 481.102 593.451 480.812 593.773 480.578C594.102 480.339 594.51 480.159 595 480.039C595.49 479.914 596.057 479.852 596.703 479.852H598.008ZM604.086 473V485H601.828V473H604.086ZM609.438 483.398C609.714 483.398 609.958 483.346 610.172 483.242C610.385 483.133 610.552 482.982 610.672 482.789C610.797 482.591 610.862 482.359 610.867 482.094H612.984C612.979 482.688 612.82 483.216 612.508 483.68C612.195 484.138 611.776 484.5 611.25 484.766C610.724 485.026 610.135 485.156 609.484 485.156C608.828 485.156 608.255 485.047 607.766 484.828C607.281 484.609 606.878 484.307 606.555 483.922C606.232 483.531 605.99 483.078 605.828 482.562C605.667 482.042 605.586 481.484 605.586 480.891V480.664C605.586 480.065 605.667 479.508 605.828 478.992C605.99 478.471 606.232 478.018 606.555 477.633C606.878 477.242 607.281 476.938 607.766 476.719C608.25 476.5 608.818 476.391 609.469 476.391C610.161 476.391 610.768 476.523 611.289 476.789C611.815 477.055 612.227 477.435 612.523 477.93C612.826 478.419 612.979 479 612.984 479.672H610.867C610.862 479.391 610.802 479.135 610.688 478.906C610.578 478.677 610.417 478.495 610.203 478.359C609.995 478.219 609.737 478.148 609.43 478.148C609.102 478.148 608.833 478.219 608.625 478.359C608.417 478.495 608.255 478.682 608.141 478.922C608.026 479.156 607.945 479.424 607.898 479.727C607.857 480.023 607.836 480.336 607.836 480.664V480.891C607.836 481.219 607.857 481.534 607.898 481.836C607.94 482.138 608.018 482.406 608.133 482.641C608.253 482.875 608.417 483.06 608.625 483.195C608.833 483.331 609.104 483.398 609.438 483.398ZM619.289 482.977V476.547H621.539V485H619.422L619.289 482.977ZM619.539 481.242L620.203 481.227C620.203 481.789 620.138 482.312 620.008 482.797C619.878 483.276 619.682 483.693 619.422 484.047C619.161 484.396 618.833 484.669 618.438 484.867C618.042 485.06 617.576 485.156 617.039 485.156C616.628 485.156 616.247 485.099 615.898 484.984C615.555 484.865 615.258 484.68 615.008 484.43C614.763 484.174 614.57 483.849 614.43 483.453C614.294 483.052 614.227 482.57 614.227 482.008V476.547H616.477V482.023C616.477 482.273 616.505 482.484 616.562 482.656C616.625 482.828 616.711 482.969 616.82 483.078C616.93 483.188 617.057 483.266 617.203 483.312C617.354 483.359 617.521 483.383 617.703 483.383C618.167 483.383 618.531 483.289 618.797 483.102C619.068 482.914 619.258 482.659 619.367 482.336C619.482 482.008 619.539 481.643 619.539 481.242ZM625.633 473V485H623.375V473H625.633ZM632.055 483.094V479.328C632.055 479.057 632.01 478.826 631.922 478.633C631.833 478.435 631.695 478.281 631.508 478.172C631.326 478.062 631.089 478.008 630.797 478.008C630.547 478.008 630.331 478.052 630.148 478.141C629.966 478.224 629.826 478.346 629.727 478.508C629.628 478.664 629.578 478.849 629.578 479.062H627.328C627.328 478.703 627.411 478.362 627.578 478.039C627.745 477.716 627.987 477.432 628.305 477.188C628.622 476.938 629 476.742 629.438 476.602C629.88 476.461 630.375 476.391 630.922 476.391C631.578 476.391 632.161 476.5 632.672 476.719C633.182 476.938 633.583 477.266 633.875 477.703C634.172 478.141 634.32 478.688 634.32 479.344V482.961C634.32 483.424 634.349 483.805 634.406 484.102C634.464 484.393 634.547 484.648 634.656 484.867V485H632.383C632.273 484.771 632.19 484.484 632.133 484.141C632.081 483.792 632.055 483.443 632.055 483.094ZM632.352 479.852L632.367 481.125H631.109C630.812 481.125 630.555 481.159 630.336 481.227C630.117 481.294 629.938 481.391 629.797 481.516C629.656 481.635 629.552 481.776 629.484 481.938C629.422 482.099 629.391 482.276 629.391 482.469C629.391 482.661 629.435 482.836 629.523 482.992C629.612 483.143 629.74 483.263 629.906 483.352C630.073 483.435 630.268 483.477 630.492 483.477C630.831 483.477 631.125 483.409 631.375 483.273C631.625 483.138 631.818 482.971 631.953 482.773C632.094 482.576 632.167 482.388 632.172 482.211L632.766 483.164C632.682 483.378 632.568 483.599 632.422 483.828C632.281 484.057 632.102 484.273 631.883 484.477C631.664 484.674 631.401 484.839 631.094 484.969C630.786 485.094 630.422 485.156 630 485.156C629.464 485.156 628.977 485.049 628.539 484.836C628.107 484.617 627.763 484.318 627.508 483.938C627.258 483.552 627.133 483.115 627.133 482.625C627.133 482.182 627.216 481.789 627.383 481.445C627.549 481.102 627.794 480.812 628.117 480.578C628.445 480.339 628.854 480.159 629.344 480.039C629.833 479.914 630.401 479.852 631.047 479.852H632.352ZM638.305 478.391V485H636.055V476.547H638.172L638.305 478.391ZM640.852 476.492L640.812 478.578C640.703 478.562 640.57 478.549 640.414 478.539C640.263 478.523 640.125 478.516 640 478.516C639.682 478.516 639.406 478.557 639.172 478.641C638.943 478.719 638.75 478.836 638.594 478.992C638.443 479.148 638.328 479.339 638.25 479.562C638.177 479.786 638.135 480.042 638.125 480.328L637.672 480.188C637.672 479.641 637.727 479.138 637.836 478.68C637.945 478.216 638.104 477.812 638.312 477.469C638.526 477.125 638.786 476.859 639.094 476.672C639.401 476.484 639.753 476.391 640.148 476.391C640.273 476.391 640.401 476.401 640.531 476.422C640.661 476.438 640.768 476.461 640.852 476.492ZM648.531 473.625V485H646.195V473.625H648.531ZM651.797 473.625H653.781L656.703 481.977L659.625 473.625H661.609L657.5 485H655.906L651.797 473.625ZM650.727 473.625H652.703L653.062 481.766V485H650.727V473.625ZM660.703 473.625H662.688V485H660.344V481.766L660.703 473.625ZM671.336 481.227H673.672C673.625 481.992 673.414 482.672 673.039 483.266C672.669 483.859 672.151 484.323 671.484 484.656C670.823 484.99 670.026 485.156 669.094 485.156C668.365 485.156 667.711 485.031 667.133 484.781C666.555 484.526 666.06 484.161 665.648 483.688C665.242 483.214 664.932 482.641 664.719 481.969C664.505 481.297 664.398 480.544 664.398 479.711V478.922C664.398 478.089 664.508 477.336 664.727 476.664C664.951 475.987 665.268 475.411 665.68 474.938C666.096 474.464 666.594 474.099 667.172 473.844C667.75 473.589 668.396 473.461 669.109 473.461C670.057 473.461 670.857 473.633 671.508 473.977C672.164 474.32 672.672 474.794 673.031 475.398C673.396 476.003 673.615 476.69 673.688 477.461H671.344C671.318 477.003 671.227 476.615 671.07 476.297C670.914 475.974 670.677 475.732 670.359 475.57C670.047 475.404 669.63 475.32 669.109 475.32C668.719 475.32 668.378 475.393 668.086 475.539C667.794 475.685 667.549 475.906 667.352 476.203C667.154 476.5 667.005 476.875 666.906 477.328C666.812 477.776 666.766 478.302 666.766 478.906V479.711C666.766 480.299 666.81 480.818 666.898 481.266C666.987 481.708 667.122 482.083 667.305 482.391C667.492 482.693 667.732 482.922 668.023 483.078C668.32 483.229 668.677 483.305 669.094 483.305C669.583 483.305 669.987 483.227 670.305 483.07C670.622 482.914 670.865 482.682 671.031 482.375C671.203 482.068 671.305 481.685 671.336 481.227Z" fill="white"/>
<path d="M685.168 480.262L696.359 480.262M696.359 480.262L691.645 475.548M696.359 480.262L691.645 484.976" stroke="white" stroke-width="1.20972" stroke-linecap="round" stroke-linejoin="round"/>
</g>
<defs>
<filter id="filter0_d_6_5" x="422" y="128" width="436" height="448" filterUnits="userSpaceOnUse" color-interpolation-filters="sRGB">
<feFlood flood-opacity="0" result="BackgroundImageFix"/>
<feColorMatrix in="SourceAlpha" type="matrix" values="0 0 0 0 0 0 0 0 0 0 0 0 0 0 0 0 0 0 127 0" result="hardAlpha"/>
<feOffset dy="2"/>
<feGaussianBlur stdDeviation="2"/>
<feComposite in2="hardAlpha" operator="out"/>
<feColorMatrix type="matrix" values="0 0 0 0 0 0 0 0 0 0 0 0 0 0 0 0 0 0 0.1 0"/>
<feBlend mode="normal" in2="BackgroundImageFix" result="effect1_dropShadow_6_5"/>
<feBlend mode="normal" in="SourceGraphic" in2="effect1_dropShadow_6_5" result="shape"/>
</filter>
</defs>
</svg>
